# xmcd CD database file
#
# Track frame offsets:
#	150
#	14197
#	27825
#	59050
#	73991
#	90355
#	110484
#	126685
#	145351
#	156985
#	170997
#	192699
#	206405
#	234835
#	249253
#	260876
#
# Disc length: 3758 seconds
#
# Revision: 0
# Processed by: cddbd v1.5.2PL0 Copyright (c) Steve Scherf et al.
# Submitted via: Feurio! 1.68 - http://www.feurio.com
#
DISCID=010eac10
DTITLE=John Kirkbride and Albie Donnelly - Return Cargo
DYEAR=2007
DGENRE=Blues
TTITLE0=I Want You To Be My Baby
TTITLE1=Bright Lights Big City
TTITLE2=Mercenary Blues
TTITLE3=Hazel's Lips
TTITLE4=Dark Shadows
TTITLE5=Big Legged Mommas Are Back In Style
TTITLE6=Spider
TTITLE7=Further On Up The Road
TTITLE8=I Need You Tonight
TTITLE9=Bad News Blues
TTITLE10=Switch
TTITLE11=This Is Always
TTITLE12=Whisky Drinking Woman
TTITLE13=Nobody Know's You
TTITLE14=Up Jumped A Rabbit
TTITLE15=Cakes In The Oven
EXTD=Albie " Mr. Supercharge" Donnelly and John Kirkbride\r\nFeaturing Roy 
EXTD="The Boy" Herrington
EXTT0=
EXTT1=
EXTT2=
EXTT3=
EXTT4=
EXTT5=
EXTT6=
EXTT7=
EXTT8=
EXTT9=
EXTT10=
EXTT11=
EXTT12=
EXTT13=
EXTT14=
EXTT15=
PLAYORDER=
